<?xml version="1.0" encoding="UTF-8" standalone="no"?>
<svg
   xmlns:dc="http://purl.org/dc/elements/1.1/"
   xmlns:cc="http://creativecommons.org/ns#"
   xmlns:rdf="http://www.w3.org/1999/02/22-rdf-syntax-ns#"
   xmlns:svg="http://www.w3.org/2000/svg"
   xmlns="http://www.w3.org/2000/svg"
   xmlns:sodipodi="http://sodipodi.sourceforge.net/DTD/sodipodi-0.dtd"
   xmlns:inkscape="http://www.inkscape.org/namespaces/inkscape"
   height="24px"
   viewBox="0 0 24 24"
   width="24px"
   fill="#FFFFFF"
   version="1.1"
   id="svg885"
   sodipodi:docname="logo.svg"
   inkscape:version="1.0.2 (e86c870879, 2021-01-15, custom)">
  <metadata
     id="metadata891">
    <rdf:RDF>
      <cc:Work
         rdf:about="">
        <dc:format>image/svg+xml</dc:format>
        <dc:type
           rdf:resource="http://purl.org/dc/dcmitype/StillImage" />
        <dc:title></dc:title>
      </cc:Work>
    </rdf:RDF>
  </metadata>
  <defs
     id="defs889" />
  <sodipodi:namedview
     pagecolor="#ffffff"
     bordercolor="#666666"
     borderopacity="1"
     objecttolerance="10"
     gridtolerance="10"
     guidetolerance="10"
     inkscape:pageopacity="0"
     inkscape:pageshadow="2"
     inkscape:window-width="1710"
     inkscape:window-height="1346"
     id="namedview887"
     showgrid="false"
     inkscape:zoom="22.112882"
     inkscape:cx="12"
     inkscape:cy="7.7783641"
     inkscape:window-x="1924"
     inkscape:window-y="86"
     inkscape:window-maximized="0"
     inkscape:current-layer="svg885" />
  <path
     d="M0 0h24v24H0V0z"
     fill="none"
     id="path881" />
  <rect
     style="fill:#2962ff;fill-opacity:1;stroke-width:3.59981"
     id="rect893"
     width="24"
     height="24"
     x="0"
     y="0"
     ry="0.79089874" />
  <path
     d="M 18.666667,4.35 17.333333,3 16,4.35 14.666667,3 13.333333,4.35 12,3 10.666667,4.35 9.3333333,3 8.0000002,4.35 6.6666668,3 5.3333334,4.35 4,3 V 21 L 5.3333334,19.65 6.6666668,21 8.0000002,19.65 9.3333333,21 10.666667,19.65 12,21 13.333333,19.65 14.666667,21 16,19.65 17.333333,21 18.666667,19.65 20,21 V 3 Z M 18.222222,18.381 H 5.7777779 V 5.619 H 18.222222 Z M 6.6666668,14.7 H 17.333333 v 1.8 H 6.6666668 Z m 0,-3.6 H 17.333333 v 1.8 H 6.6666668 Z m 0,-3.6 H 17.333333 V 9.3 H 6.6666668 Z"
     id="path883"
     style="stroke-width:0.89443" />
</svg>
